<?xml version="1.0" encoding="UTF-8"?>
<svg width="100px" height="32px" viewBox="0 0 100 32" version="1.1" xmlns="http://www.w3.org/2000/svg">
    <g stroke="none" stroke-width="1" fill="none" fill-rule="evenodd">
        <rect fill="#FFFFFF" x="0" y="0" width="100" height="32" rx="4"/>
        <path d="M45.2,11.3c-0.4-0.5-1.1-0.7-2-0.7h-2.8c-0.2,0-0.4,0.2-0.4,0.4l-1.3,8.1c0,0.2,0.1,0.3,0.3,0.3h1.4c0.2,0,0.3-0.1,0.4-0.3l0.4-2.3c0-0.2,0.2-0.4,0.4-0.4h0.9c1.7,0,2.7-0.8,3-2.5c0.1-0.7,0-1.3-0.3-1.7 M43.5,13.7c-0.1,0.9-0.8,0.9-1.5,0.9h-0.4l0.3-1.7c0-0.1,0.1-0.2,0.2-0.2h0.2c0.5,0,0.9,0,1.1,0.3C43.6,13.2,43.6,13.4,43.5,13.7 M55.2,13.6h-1.4c-0.1,0-0.2,0.1-0.2,0.2l-0.1,0.4l-0.1-0.2c-0.3-0.5-1.1-0.6-1.8-0.6c-1.7,0-3.2,1.3-3.5,3.1c-0.1,0.9,0.1,1.8,0.5,2.4c0.4,0.5,1,0.8,1.7,0.8c1.2,0,1.9-0.8,1.9-0.8l-0.1,0.4c0,0.2,0.1,0.3,0.3,0.3h1.3c0.2,0,0.4-0.2,0.4-0.4l0.8-5c0-0.1-0.1-0.3-0.3-0.3 M52.8,16.9c-0.2,0.9-0.8,1.5-1.7,1.5c-0.4,0-0.8-0.1-1-0.4c-0.2-0.3-0.3-0.7-0.2-1.1c0.1-0.9,0.8-1.5,1.7-1.5c0.4,0,0.7,0.1,1,0.4C52.8,16,52.9,16.4,52.8,16.9 M64.7,13.6h-1.4c-0.1,0-0.3,0.1-0.3,0.2l-0.1,0.4l-0.1-0.2c-0.3-0.5-1.1-0.6-1.8-0.6c-1.7,0-3.2,1.3-3.5,3.1c-0.1,0.9,0.1,1.8,0.5,2.4c0.4,0.5,1,0.8,1.7,0.8c1.2,0,1.9-0.8,1.9-0.8l-0.1,0.4c0,0.2,0.1,0.3,0.3,0.3h1.3c0.2,0,0.4-0.2,0.4-0.4l0.8-5c0-0.1-0.1-0.3-0.3-0.3 M62.3,16.9c-0.2,0.9-0.8,1.5-1.7,1.5c-0.4,0-0.8-0.1-1-0.4c-0.2-0.3-0.3-0.7-0.2-1.1c0.1-0.9,0.8-1.5,1.7-1.5c0.4,0,0.7,0.1,1,0.4C62.3,16,62.4,16.4,62.3,16.9" fill="#003087"/>
    </g>
</svg>
