<?xml version="1.0" encoding="UTF-8"?>
<svg width="100px" height="32px" viewBox="0 0 100 32" version="1.1" xmlns="http://www.w3.org/2000/svg">
    <g stroke="none" stroke-width="1" fill="none" fill-rule="evenodd">
        <rect fill="#FFFFFF" x="0" y="0" width="100" height="32" rx="4"/>
        <path d="M47.2,10l-4.1,12h-2.8l-2-7.9c-0.1-0.5-0.2-0.7-0.6-0.9c-0.6-0.3-1.6-0.6-2.5-0.8l0.1-0.4h4.3c0.6,0,1.1,0.4,1.2,1l1.1,5.9l2.7-6.9H47.2z M57.6,18.7c0-2.7-3.8-2.9-3.7-4.1c0-0.4,0.4-0.8,1.1-0.9c0.4,0,1.4-0.1,2.6,0.4l0.5-2.1c-0.6-0.2-1.4-0.4-2.4-0.4c-2.6,0-4.4,1.4-4.4,3.3c0,1.4,1.3,2.2,2.3,2.7c1,0.5,1.4,0.8,1.4,1.2c0,0.7-0.8,1-1.6,1c-1.3,0-2.1-0.4-2.7-0.6l-0.5,2.2c0.6,0.3,1.7,0.5,2.9,0.5C55.9,22,57.6,20.6,57.6,18.7 M65.5,22h2.5l-2.2-12h-2.3c-0.5,0-1,0.3-1.1,0.8l-4,11.2h2.8l0.6-1.5h3.4L65.5,22z M62.4,18.4l1.4-3.8l0.8,3.8H62.4z M39.4,10l-2.2,12h-2.7l2.2-12H39.4z" fill="#1A1F71"/>
    </g>
</svg>
